<?xml version="1.0" encoding="UTF-8"?>
<svg xmlns="http://www.w3.org/2000/svg" xmlns:xlink="http://www.w3.org/1999/xlink" width="3873" height="3873" viewBox="0 0 3873 3873">
<defs>
<clipPath id="clip-0">
<path clip-rule="evenodd" d="M 1936.5 0 C 3006 0 3873 867 3873 1936.5 C 3873 3006 3006 3873 1936.5 3873 C 867 3873 0 3006 0 1936.5 C 0 867 867 0 1936.5 0 "/>
</clipPath>
<linearGradient id="linear-pattern-0" gradientUnits="userSpaceOnUse" x1="-0.500008" y1="0" x2="1.500007" y2="0" gradientTransform="matrix(2072.1, -1778.48, 1778.48, 2072.1, 900.452, 2825.74)">
<stop offset="0" stop-color="rgb(95.684814%, 2.745056%, 40.783691%)" stop-opacity="1"/>
<stop offset="0.25" stop-color="rgb(95.684814%, 2.745056%, 40.783691%)" stop-opacity="1"/>
<stop offset="0.253906" stop-color="rgb(94.86084%, 3.482056%, 41.343689%)" stop-opacity="1"/>
<stop offset="0.257812" stop-color="rgb(94.038391%, 4.220581%, 41.905212%)" stop-opacity="1"/>
<stop offset="0.261719" stop-color="rgb(93.214417%, 4.959106%, 42.46521%)" stop-opacity="1"/>
<stop offset="0.265625" stop-color="rgb(92.390442%, 5.697632%, 43.026733%)" stop-opacity="1"/>
<stop offset="0.269531" stop-color="rgb(91.566467%, 6.436157%, 43.588257%)" stop-opacity="1"/>
<stop offset="0.273437" stop-color="rgb(90.742493%, 7.176208%, 44.14978%)" stop-opacity="1"/>
<stop offset="0.277344" stop-color="rgb(89.918518%, 7.914734%, 44.709778%)" stop-opacity="1"/>
<stop offset="0.28125" stop-color="rgb(89.096069%, 8.653259%, 45.271301%)" stop-opacity="1"/>
<stop offset="0.285156" stop-color="rgb(88.272095%, 9.391785%, 45.832825%)" stop-opacity="1"/>
<stop offset="0.289062" stop-color="rgb(87.44812%, 10.13031%, 46.394348%)" stop-opacity="1"/>
<stop offset="0.292969" stop-color="rgb(86.624146%, 10.868835%, 46.954346%)" stop-opacity="1"/>
<stop offset="0.296875" stop-color="rgb(85.800171%, 11.607361%, 47.515869%)" stop-opacity="1"/>
<stop offset="0.300781" stop-color="rgb(84.976196%, 12.345886%, 48.075867%)" stop-opacity="1"/>
<stop offset="0.304688" stop-color="rgb(84.152222%, 13.084412%, 48.63739%)" stop-opacity="1"/>
<stop offset="0.308594" stop-color="rgb(83.328247%, 13.822937%, 49.198914%)" stop-opacity="1"/>
<stop offset="0.3125" stop-color="rgb(82.504272%, 14.561462%, 49.760437%)" stop-opacity="1"/>
<stop offset="0.316406" stop-color="rgb(81.680298%, 15.299988%, 50.320435%)" stop-opacity="1"/>
<stop offset="0.320312" stop-color="rgb(80.857849%, 16.038513%, 50.881958%)" stop-opacity="1"/>
<stop offset="0.324219" stop-color="rgb(80.033875%, 16.777039%, 51.441956%)" stop-opacity="1"/>
<stop offset="0.328125" stop-color="rgb(79.2099%, 17.515564%, 52.003479%)" stop-opacity="1"/>
<stop offset="0.332031" stop-color="rgb(78.385925%, 18.254089%, 52.565002%)" stop-opacity="1"/>
<stop offset="0.335938" stop-color="rgb(77.561951%, 18.992615%, 53.126526%)" stop-opacity="1"/>
<stop offset="0.339844" stop-color="rgb(76.737976%, 19.73114%, 53.686523%)" stop-opacity="1"/>
<stop offset="0.34375" stop-color="rgb(75.914001%, 20.469666%, 54.248047%)" stop-opacity="1"/>
<stop offset="0.347656" stop-color="rgb(75.090027%, 21.208191%, 54.80957%)" stop-opacity="1"/>
<stop offset="0.351562" stop-color="rgb(74.266052%, 21.946716%, 55.371094%)" stop-opacity="1"/>
<stop offset="0.355469" stop-color="rgb(73.442078%, 22.685242%, 55.931091%)" stop-opacity="1"/>
<stop offset="0.359375" stop-color="rgb(72.619629%, 23.425293%, 56.492615%)" stop-opacity="1"/>
<stop offset="0.363281" stop-color="rgb(71.795654%, 24.163818%, 57.052612%)" stop-opacity="1"/>
<stop offset="0.367187" stop-color="rgb(70.97168%, 24.902344%, 57.614136%)" stop-opacity="1"/>
<stop offset="0.371094" stop-color="rgb(70.147705%, 25.640869%, 58.175659%)" stop-opacity="1"/>
<stop offset="0.375" stop-color="rgb(69.32373%, 26.379395%, 58.737183%)" stop-opacity="1"/>
<stop offset="0.378906" stop-color="rgb(68.499756%, 27.11792%, 59.29718%)" stop-opacity="1"/>
<stop offset="0.382812" stop-color="rgb(67.675781%, 27.856445%, 59.858704%)" stop-opacity="1"/>
<stop offset="0.386719" stop-color="rgb(66.851807%, 28.594971%, 60.418701%)" stop-opacity="1"/>
<stop offset="0.390625" stop-color="rgb(66.027832%, 29.333496%, 60.980225%)" stop-opacity="1"/>
<stop offset="0.394531" stop-color="rgb(65.203857%, 30.072021%, 61.541748%)" stop-opacity="1"/>
<stop offset="0.398438" stop-color="rgb(64.381409%, 30.810547%, 62.103271%)" stop-opacity="1"/>
<stop offset="0.402344" stop-color="rgb(63.557434%, 31.549072%, 62.663269%)" stop-opacity="1"/>
<stop offset="0.40625" stop-color="rgb(62.733459%, 32.287598%, 63.224792%)" stop-opacity="1"/>
<stop offset="0.410156" stop-color="rgb(61.909485%, 33.026123%, 63.786316%)" stop-opacity="1"/>
<stop offset="0.414062" stop-color="rgb(61.08551%, 33.764648%, 64.347839%)" stop-opacity="1"/>
<stop offset="0.417969" stop-color="rgb(60.261536%, 34.503174%, 64.907837%)" stop-opacity="1"/>
<stop offset="0.421875" stop-color="rgb(59.437561%, 35.241699%, 65.46936%)" stop-opacity="1"/>
<stop offset="0.425781" stop-color="rgb(58.613586%, 35.980225%, 66.029358%)" stop-opacity="1"/>
<stop offset="0.429688" stop-color="rgb(57.791138%, 36.71875%, 66.590881%)" stop-opacity="1"/>
<stop offset="0.433594" stop-color="rgb(56.967163%, 37.457275%, 67.152405%)" stop-opacity="1"/>
<stop offset="0.4375" stop-color="rgb(56.143188%, 38.195801%, 67.713928%)" stop-opacity="1"/>
<stop offset="0.441406" stop-color="rgb(55.319214%, 38.934326%, 68.273926%)" stop-opacity="1"/>
<stop offset="0.445312" stop-color="rgb(54.495239%, 39.674377%, 68.835449%)" stop-opacity="1"/>
<stop offset="0.449219" stop-color="rgb(53.671265%, 40.412903%, 69.395447%)" stop-opacity="1"/>
<stop offset="0.453125" stop-color="rgb(52.84729%, 41.151428%, 69.95697%)" stop-opacity="1"/>
<stop offset="0.457031" stop-color="rgb(52.023315%, 41.889954%, 70.518494%)" stop-opacity="1"/>
<stop offset="0.460938" stop-color="rgb(51.199341%, 42.628479%, 71.080017%)" stop-opacity="1"/>
<stop offset="0.464844" stop-color="rgb(50.505066%, 43.251038%, 71.556091%)" stop-opacity="1"/>
<stop offset="0.46875" stop-color="rgb(49.812317%, 43.873596%, 72.033691%)" stop-opacity="1"/>
<stop offset="0.472656" stop-color="rgb(49.320984%, 44.314575%, 72.37854%)" stop-opacity="1"/>
<stop offset="0.476562" stop-color="rgb(48.831177%, 44.75708%, 72.723389%)" stop-opacity="1"/>
<stop offset="0.480469" stop-color="rgb(48.34137%, 45.198059%, 73.068237%)" stop-opacity="1"/>
<stop offset="0.484375" stop-color="rgb(47.851562%, 45.640564%, 73.413086%)" stop-opacity="1"/>
<stop offset="0.488281" stop-color="rgb(47.360229%, 46.081543%, 73.757935%)" stop-opacity="1"/>
<stop offset="0.492188" stop-color="rgb(46.870422%, 46.524048%, 74.102783%)" stop-opacity="1"/>
<stop offset="0.496094" stop-color="rgb(46.379089%, 46.965027%, 74.447632%)" stop-opacity="1"/>
<stop offset="0.5" stop-color="rgb(45.889282%, 47.407532%, 74.79248%)" stop-opacity="1"/>
<stop offset="0.503906" stop-color="rgb(45.399475%, 47.850037%, 75.137329%)" stop-opacity="1"/>
<stop offset="0.507812" stop-color="rgb(44.909668%, 48.292542%, 75.482178%)" stop-opacity="1"/>
<stop offset="0.511719" stop-color="rgb(44.418335%, 48.733521%, 75.827026%)" stop-opacity="1"/>
<stop offset="0.515625" stop-color="rgb(43.928528%, 49.176025%, 76.171875%)" stop-opacity="1"/>
<stop offset="0.519531" stop-color="rgb(43.437195%, 49.617004%, 76.516724%)" stop-opacity="1"/>
<stop offset="0.523438" stop-color="rgb(42.947388%, 50.059509%, 76.861572%)" stop-opacity="1"/>
<stop offset="0.527344" stop-color="rgb(42.457581%, 50.500488%, 77.206421%)" stop-opacity="1"/>
<stop offset="0.53125" stop-color="rgb(41.967773%, 50.942993%, 77.55127%)" stop-opacity="1"/>
<stop offset="0.535156" stop-color="rgb(41.47644%, 51.383972%, 77.896118%)" stop-opacity="1"/>
<stop offset="0.539062" stop-color="rgb(40.986633%, 51.826477%, 78.240967%)" stop-opacity="1"/>
<stop offset="0.542969" stop-color="rgb(40.4953%, 52.267456%, 78.585815%)" stop-opacity="1"/>
<stop offset="0.546875" stop-color="rgb(40.005493%, 52.709961%, 78.930664%)" stop-opacity="1"/>
<stop offset="0.550781" stop-color="rgb(39.515686%, 53.15094%, 79.275513%)" stop-opacity="1"/>
<stop offset="0.554688" stop-color="rgb(39.025879%, 53.593445%, 79.620361%)" stop-opacity="1"/>
<stop offset="0.558594" stop-color="rgb(38.534546%, 54.034424%, 79.96521%)" stop-opacity="1"/>
<stop offset="0.5625" stop-color="rgb(38.044739%, 54.476929%, 80.310059%)" stop-opacity="1"/>
<stop offset="0.566406" stop-color="rgb(37.553406%, 54.919434%, 80.654907%)" stop-opacity="1"/>
<stop offset="0.570312" stop-color="rgb(37.063599%, 55.361938%, 80.999756%)" stop-opacity="1"/>
<stop offset="0.574219" stop-color="rgb(36.573792%, 55.802917%, 81.344604%)" stop-opacity="1"/>
<stop offset="0.578125" stop-color="rgb(36.083984%, 56.245422%, 81.689453%)" stop-opacity="1"/>
<stop offset="0.582031" stop-color="rgb(35.592651%, 56.686401%, 82.034302%)" stop-opacity="1"/>
<stop offset="0.585938" stop-color="rgb(35.102844%, 57.128906%, 82.37915%)" stop-opacity="1"/>
<stop offset="0.589844" stop-color="rgb(34.611511%, 57.569885%, 82.723999%)" stop-opacity="1"/>
<stop offset="0.59375" stop-color="rgb(34.121704%, 58.01239%, 83.068848%)" stop-opacity="1"/>
<stop offset="0.597656" stop-color="rgb(33.631897%, 58.453369%, 83.413696%)" stop-opacity="1"/>
<stop offset="0.601562" stop-color="rgb(33.14209%, 58.895874%, 83.758545%)" stop-opacity="1"/>
<stop offset="0.605469" stop-color="rgb(32.650757%, 59.336853%, 84.103394%)" stop-opacity="1"/>
<stop offset="0.609375" stop-color="rgb(32.16095%, 59.779358%, 84.448242%)" stop-opacity="1"/>
<stop offset="0.613281" stop-color="rgb(31.669617%, 60.220337%, 84.793091%)" stop-opacity="1"/>
<stop offset="0.617188" stop-color="rgb(31.17981%, 60.662842%, 85.137939%)" stop-opacity="1"/>
<stop offset="0.621094" stop-color="rgb(30.688477%, 61.103821%, 85.482788%)" stop-opacity="1"/>
<stop offset="0.625" stop-color="rgb(30.198669%, 61.546326%, 85.827637%)" stop-opacity="1"/>
<stop offset="0.628906" stop-color="rgb(29.708862%, 61.988831%, 86.172485%)" stop-opacity="1"/>
<stop offset="0.632812" stop-color="rgb(29.219055%, 62.431335%, 86.517334%)" stop-opacity="1"/>
<stop offset="0.636719" stop-color="rgb(28.727722%, 62.872314%, 86.862183%)" stop-opacity="1"/>
<stop offset="0.640625" stop-color="rgb(28.237915%, 63.314819%, 87.207031%)" stop-opacity="1"/>
<stop offset="0.644531" stop-color="rgb(27.746582%, 63.755798%, 87.55188%)" stop-opacity="1"/>
<stop offset="0.648437" stop-color="rgb(27.256775%, 64.198303%, 87.896729%)" stop-opacity="1"/>
<stop offset="0.652344" stop-color="rgb(26.766968%, 64.639282%, 88.241577%)" stop-opacity="1"/>
<stop offset="0.65625" stop-color="rgb(26.277161%, 65.081787%, 88.586426%)" stop-opacity="1"/>
<stop offset="0.660156" stop-color="rgb(25.785828%, 65.522766%, 88.931274%)" stop-opacity="1"/>
<stop offset="0.664062" stop-color="rgb(25.296021%, 65.965271%, 89.276123%)" stop-opacity="1"/>
<stop offset="0.667969" stop-color="rgb(24.804688%, 66.40625%, 89.620972%)" stop-opacity="1"/>
<stop offset="0.671875" stop-color="rgb(24.31488%, 66.848755%, 89.96582%)" stop-opacity="1"/>
<stop offset="0.675781" stop-color="rgb(23.825073%, 67.289734%, 90.310669%)" stop-opacity="1"/>
<stop offset="0.679688" stop-color="rgb(23.335266%, 67.732239%, 90.655518%)" stop-opacity="1"/>
<stop offset="0.683594" stop-color="rgb(22.843933%, 68.173218%, 91.000366%)" stop-opacity="1"/>
<stop offset="0.6875" stop-color="rgb(22.354126%, 68.615723%, 91.345215%)" stop-opacity="1"/>
<stop offset="0.691406" stop-color="rgb(21.862793%, 69.058228%, 91.690063%)" stop-opacity="1"/>
<stop offset="0.695312" stop-color="rgb(21.372986%, 69.500732%, 92.034912%)" stop-opacity="1"/>
<stop offset="0.699219" stop-color="rgb(20.883179%, 69.941711%, 92.379761%)" stop-opacity="1"/>
<stop offset="0.703125" stop-color="rgb(20.393372%, 70.384216%, 92.724609%)" stop-opacity="1"/>
<stop offset="0.707031" stop-color="rgb(19.902039%, 70.825195%, 93.069458%)" stop-opacity="1"/>
<stop offset="0.710938" stop-color="rgb(19.412231%, 71.2677%, 93.414307%)" stop-opacity="1"/>
<stop offset="0.714844" stop-color="rgb(18.920898%, 71.708679%, 93.759155%)" stop-opacity="1"/>
<stop offset="0.71875" stop-color="rgb(18.431091%, 72.151184%, 94.104004%)" stop-opacity="1"/>
<stop offset="0.722656" stop-color="rgb(17.941284%, 72.592163%, 94.448853%)" stop-opacity="1"/>
<stop offset="0.726562" stop-color="rgb(17.451477%, 73.034668%, 94.793701%)" stop-opacity="1"/>
<stop offset="0.730469" stop-color="rgb(16.960144%, 73.475647%, 95.13855%)" stop-opacity="1"/>
<stop offset="0.734375" stop-color="rgb(16.470337%, 73.918152%, 95.483398%)" stop-opacity="1"/>
<stop offset="0.738281" stop-color="rgb(15.979004%, 74.359131%, 95.828247%)" stop-opacity="1"/>
<stop offset="0.742187" stop-color="rgb(15.489197%, 74.801636%, 96.173096%)" stop-opacity="1"/>
<stop offset="0.746094" stop-color="rgb(14.99939%, 75.242615%, 96.516418%)" stop-opacity="1"/>
<stop offset="0.75" stop-color="rgb(14.509583%, 75.68512%, 96.861267%)" stop-opacity="1"/>
<stop offset="1" stop-color="rgb(14.509583%, 75.68512%, 96.861267%)" stop-opacity="1"/>
</linearGradient>
</defs>
<g clip-path="url(#clip-0)">
<path fill-rule="nonzero" fill="url(#linear-pattern-0)" d="M -1914.109375 1642.878906 L 1642.878906 5787.109375 L 5787.109375 2230.121094 L 2230.121094 -1914.109375 Z M -1914.109375 1642.878906 "/>
</g>
<path fill-rule="evenodd" fill="rgb(100%, 100%, 99.609375%)" fill-opacity="1" d="M 2176.601562 1876.5 L 2153.699219 1876.5 L 2153.699219 1985.699219 L 2176.601562 1985.699219 C 2188.300781 1985.699219 2197.699219 1995.199219 2197.699219 2006.800781 C 2197.699219 2018.5 2188.199219 2027.898438 2176.601562 2027.898438 L 2088.601562 2027.898438 C 2076.898438 2027.898438 2067.5 2018.398438 2067.5 2006.800781 C 2067.5 1995.101562 2077 1985.699219 2088.601562 1985.699219 L 2111.5 1985.699219 L 2111.5 1876.5 L 2088.601562 1876.5 C 2076.898438 1876.5 2067.5 1867 2067.5 1855.398438 C 2067.5 1843.699219 2077 1834.300781 2088.601562 1834.300781 L 2176.601562 1834.300781 C 2188.300781 1834.300781 2197.699219 1843.800781 2197.699219 1855.398438 C 2197.800781 1867 2188.300781 1876.5 2176.601562 1876.5 Z M 1970.898438 1919.898438 L 1989.398438 1919.898438 C 1999.601562 1919.898438 2007.898438 1911.601562 2007.898438 1901.398438 L 2007.898438 1881.601562 C 2007.898438 1871.398438 1999.601562 1863.101562 1989.398438 1863.101562 L 1970.898438 1863.101562 Z M 1989.300781 1962.199219 L 1970.800781 1962.199219 L 1970.800781 2020.300781 C 1970.800781 2032 1961.300781 2041.398438 1949.699219 2041.398438 C 1938.101562 2041.398438 1928.601562 2031.898438 1928.601562 2020.300781 L 1928.601562 1839.898438 L 1928.699219 1839.398438 L 1928.800781 1838.898438 L 1928.898438 1838.398438 L 1929 1837.898438 C 1931 1828.300781 1939.5 1821 1949.699219 1821 L 1989.300781 1821 C 2022.800781 1821 2050.101562 1848.300781 2050.101562 1881.800781 L 2050.101562 1901.601562 C 2050.101562 1934.898438 2022.898438 1962.199219 1989.300781 1962.199219 Z M 1803.898438 1929.800781 L 1821.5 1929.800781 L 1812.699219 1905 Z M 1836.601562 1972.101562 L 1788.898438 1972.101562 L 1769.199219 2027.398438 C 1766.101562 2036.101562 1758 2041.5 1749.300781 2041.5 C 1747 2041.5 1744.601562 2041.101562 1742.199219 2040.300781 C 1731.199219 2036.398438 1725.5 2024.300781 1729.398438 2013.300781 L 1792.800781 1834.898438 C 1795.800781 1826.5 1803.800781 1820.800781 1812.699219 1820.800781 C 1821.601562 1820.800781 1829.601562 1826.398438 1832.601562 1834.898438 L 1871.101562 1943.199219 C 1871.300781 1943.699219 1871.398438 1944.101562 1871.601562 1944.601562 L 1896 2013.300781 C 1899.898438 2024.300781 1894.199219 2036.398438 1883.199219 2040.300781 C 1872.199219 2044.199219 1860.101562 2038.5 1856.199219 2027.5 Z M 1963.199219 1633.5 C 1868.898438 1633.5 1782.199219 1676.601562 1725.5 1751.800781 C 1626.601562 1882.800781 1652.699219 2069.699219 1783.699219 2168.601562 C 1835.800781 2207.898438 1897.699219 2228.699219 1962.800781 2228.699219 C 2057.101562 2228.699219 2143.800781 2185.601562 2200.5 2110.398438 C 2248.398438 2047 2268.699219 1968.699219 2257.699219 1889.898438 C 2246.699219 1811.199219 2205.699219 1741.398438 2142.300781 1693.601562 C 2090.199219 1654.300781 2028.300781 1633.5 1963.199219 1633.5 Z M 1962.699219 2271 C 1888.398438 2271 1817.601562 2247.300781 1758.199219 2202.398438 C 1608.601562 2089.5 1578.800781 1875.898438 1691.699219 1726.398438 C 1756.5 1640.5 1855.5 1591.300781 1963.199219 1591.300781 C 2037.5 1591.300781 2108.300781 1615 2167.699219 1659.898438 C 2240.101562 1714.601562 2287 1794.199219 2299.5 1884.101562 C 2312.101562 1974 2288.800781 2063.398438 2234.101562 2135.898438 C 2169.398438 2221.699219 2070.5 2271 1962.699219 2271 Z M 1967.5 2566.5 C 1946.699219 2566.5 1928.800781 2551 1925.898438 2530.398438 L 1908.101562 2403.199219 C 1864.300781 2398.199219 1821.699219 2387.101562 1781.101562 2370.300781 L 1703.800781 2472.699219 C 1695.898438 2483.101562 1683.398438 2489.398438 1670.300781 2489.398438 C 1661.101562 2489.398438 1652.398438 2486.5 1645.101562 2481 L 1521.300781 2387.5 C 1502.800781 2373.601562 1499.199219 2347.199219 1513.101562 2328.699219 L 1590.5 2226.199219 C 1563.199219 2191.800781 1540.898438 2153.800781 1524.101562 2113.101562 L 1396.898438 2130.898438 C 1395 2131.199219 1393 2131.300781 1391.101562 2131.300781 C 1370.300781 2131.300781 1352.398438 2115.800781 1349.601562 2095.199219 L 1328.101562 1941.601562 C 1324.898438 1918.699219 1340.898438 1897.5 1363.800781 1894.300781 L 1491 1876.5 C 1496 1832.699219 1507.101562 1790.101562 1523.898438 1749.5 L 1421.5 1672.199219 C 1412.601562 1665.5 1406.800781 1655.601562 1405.300781 1644.5 C 1403.699219 1633.398438 1406.601562 1622.398438 1413.300781 1613.398438 L 1506.800781 1489.601562 C 1514.699219 1479.199219 1527.199219 1472.898438 1540.300781 1472.898438 C 1549.5 1472.898438 1558.199219 1475.800781 1565.5 1481.300781 L 1667.898438 1558.601562 C 1702.398438 1531.300781 1740.300781 1509 1781.101562 1492.199219 L 1763.300781 1365 C 1761.800781 1353.898438 1764.601562 1342.898438 1771.398438 1333.898438 C 1778.199219 1324.898438 1788 1319.199219 1799.101562 1317.601562 L 1952.699219 1296.199219 C 1954.601562 1295.898438 1956.601562 1295.800781 1958.5 1295.800781 C 1979.300781 1295.800781 1997.199219 1311.300781 2000 1331.898438 L 2017.800781 1459.101562 C 2061.601562 1464.101562 2104.199219 1475.199219 2144.800781 1492 L 2222.199219 1389.5 C 2230.101562 1379.101562 2242.601562 1372.898438 2255.699219 1372.898438 C 2264.898438 1372.898438 2273.601562 1375.800781 2280.898438 1381.300781 L 2404.699219 1474.800781 C 2413.601562 1481.5 2419.398438 1491.398438 2420.898438 1502.5 C 2422.398438 1513.601562 2419.601562 1524.601562 2412.898438 1533.601562 L 2335.601562 1636.101562 C 2362.898438 1670.5 2385.199219 1708.5 2402 1749.199219 L 2529.199219 1731.398438 C 2531.101562 1731.101562 2533.101562 1731 2535 1731 C 2555.800781 1731 2573.699219 1746.5 2576.5 1767.199219 L 2597.898438 1920.800781 C 2599.398438 1931.898438 2596.601562 1942.898438 2589.800781 1951.898438 C 2583 1960.898438 2573.199219 1966.601562 2562.199219 1968.199219 L 2435 1986 C 2430 2029.800781 2418.898438 2072.398438 2402.101562 2113 L 2504.5 2190.300781 C 2523 2204.199219 2526.601562 2230.601562 2512.699219 2249.101562 L 2419.199219 2372.898438 C 2411.300781 2383.300781 2398.800781 2389.601562 2385.699219 2389.601562 C 2376.5 2389.601562 2367.800781 2386.699219 2360.5 2381.199219 L 2258 2303.800781 C 2223.601562 2331.101562 2185.601562 2353.398438 2144.898438 2370.199219 L 2162.699219 2497.398438 C 2165.898438 2520.300781 2149.898438 2541.5 2127 2544.699219 L 1973.398438 2566.199219 C 1971.398438 2566.300781 1969.5 2566.5 1967.5 2566.5 "/>
<path fill-rule="evenodd" fill="rgb(100%, 100%, 99.609375%)" fill-opacity="1" d="M 2763.699219 1737.5 C 2752.5 1737.5 2741.699219 1733.101562 2733.800781 1725.101562 L 2169 1160.398438 C 2152.5 1143.898438 2152.5 1117.101562 2169 1100.601562 C 2185.5 1084.101562 2212.300781 1084.101562 2228.800781 1100.601562 L 2793.601562 1665.398438 C 2810.101562 1681.898438 2810.101562 1708.699219 2793.601562 1725.199219 C 2785.601562 1733.101562 2774.898438 1737.5 2763.699219 1737.5 "/>
<path fill-rule="evenodd" fill="rgb(100%, 100%, 99.609375%)" fill-opacity="1" d="M 2178.300781 2692.601562 L 2733.699219 2137.199219 C 2750.199219 2120.699219 2777 2120.699219 2793.5 2137.199219 C 2810 2153.699219 2810 2180.5 2793.5 2197 L 2239.699219 2750.800781 C 2250.199219 2770 2256.101562 2792 2256.101562 2815.398438 C 2256.101562 2890.199219 2195.199219 2951.101562 2120.398438 2951.101562 C 2045.601562 2951.101562 1984.699219 2890.199219 1984.699219 2815.398438 C 1984.699219 2740.601562 2045.601562 2679.699219 2120.398438 2679.699219 C 2141.101562 2679.601562 2160.800781 2684.199219 2178.300781 2692.601562 "/>
<path fill-rule="evenodd" fill="rgb(100%, 100%, 99.609375%)" fill-opacity="1" d="M 1162.300781 1737.5 C 1151.101562 1737.5 1140.398438 1733.101562 1132.398438 1725.101562 C 1115.898438 1708.601562 1115.898438 1681.800781 1132.398438 1665.300781 L 1697.199219 1100.5 C 1713.699219 1084 1740.5 1084 1757 1100.5 C 1773.5 1117 1773.5 1143.800781 1757 1160.300781 L 1192.199219 1725.101562 C 1184.300781 1733.101562 1173.601562 1737.5 1162.300781 1737.5 "/>
<path fill-rule="evenodd" fill="rgb(100%, 100%, 99.609375%)" fill-opacity="1" d="M 1815.601562 1193.398438 C 1740.800781 1193.398438 1679.898438 1132.5 1679.898438 1057.699219 C 1679.898438 982.898438 1740.800781 922 1815.601562 922 C 1890.398438 922 1951.300781 982.898438 1951.300781 1057.699219 C 1951.300781 1132.5 1890.398438 1193.398438 1815.601562 1193.398438 "/>
<path fill-rule="evenodd" fill="rgb(100%, 100%, 99.609375%)" fill-opacity="1" d="M 2840.898438 1915.601562 C 2766.101562 1915.601562 2705.199219 1854.699219 2705.199219 1779.898438 C 2705.199219 1705.101562 2766.101562 1644.199219 2840.898438 1644.199219 C 2915.699219 1644.199219 2976.601562 1705.101562 2976.601562 1779.898438 C 2976.601562 1854.699219 2915.699219 1915.601562 2840.898438 1915.601562 "/>
<path fill-rule="evenodd" fill="rgb(100%, 100%, 99.609375%)" fill-opacity="1" d="M 1711.898438 2790.5 C 1711.898438 2801.699219 1707.5 2812.5 1699.5 2820.398438 C 1683 2836.898438 1656.199219 2836.898438 1639.699219 2820.398438 L 1074.898438 2255.601562 C 1058.398438 2239.101562 1058.398438 2212.300781 1074.898438 2195.800781 C 1091.398438 2179.300781 1118.199219 2179.300781 1134.699219 2195.800781 L 1699.5 2760.601562 C 1707.5 2768.601562 1711.898438 2779.300781 1711.898438 2790.5 "/>
<path fill-rule="evenodd" fill="rgb(100%, 100%, 99.609375%)" fill-opacity="1" d="M 1167.800781 2137.300781 C 1167.800781 2212.101562 1106.898438 2273 1032.101562 2273 C 957.300781 2273 896.398438 2212.101562 896.398438 2137.300781 C 896.398438 2062.5 957.300781 2001.601562 1032.101562 2001.601562 C 1106.898438 2001.601562 1167.800781 2062.398438 1167.800781 2137.300781 "/>
</svg>
